<?xml version="1.0" standalone="no"?>
<svg version="1.0" xmlns="http://www.w3.org/2000/svg"
 width="341.000000pt" height="141.000000pt" viewBox="0 0 341.000000 141.000000"
 preserveAspectRatio="xMidYMid meet">

<g transform="translate(0.000000,141.000000) scale(0.100000,-0.100000)" stroke="none">

  <!-- ATG letters: RED -->
  <g fill="#e10600">
    <path d="M412 1091 c-11 -7 -252 -476 -252 -491 0 -6 30 -10 70 -10 l70 0 25
50 26 51 132 -3 132 -3 23 -47 24 -48 74 0 c41 0 74 2 74 5 0 3 -57 118 -127
256 l-127 250 -67 -2 c-37 -1 -72 -5 -77 -8z m148 -297 c0 -2 -36 -4 -80 -4
-44 0 -80 2 -80 5 0 3 18 42 41 87 l41 82 39 -83 c21 -45 39 -84 39 -87z"/>
    <path d="M710 1035 l0 -55 85 0 85 0 0 -195 0 -195 70 0 70 0 0 195 0 195 85
0 85 0 0 55 0 55 -240 0 -240 0 0 -55z"/>
    <path d="M1390 1091 c-72 -22 -147 -88 -175 -153 -21 -52 -19 -153 4 -203 25
-53 76 -103 131 -129 68 -32 234 -30 307 2 81 37 84 43 81 163 l-3 104 -132 3
-133 3 0 -51 0 -50 70 0 70 0 0 -31 c0 -25 -6 -32 -35 -45 -75 -31 -177 -4
-215 58 -32 50 -24 137 15 178 52 54 159 64 230 20 l31 -19 43 43 42 43 -38
26 c-21 14 -56 30 -78 36 -45 12 -177 13 -215 2z"/>
  </g>

  <!-- Car silhouette + checkered flag: BLACK -->
  <g fill="#ffffff">
    <path d="M1796 1196 l6 -23 -244 -9 c-203 -8 -223 -9 -120 -12 76 -2 121 -6
117 -12 -4 -6 6 -10 22 -10 51 -1 183 -74 183 -101 0 -6 -20 -34 -45 -62 l-45
-52 47 -3 c26 -2 50 -7 53 -12 3 -5 46 -3 100 5 122 19 212 19 255 1 29 -12
35 -20 35 -45 0 -16 -4 -33 -10 -36 -5 -3 -7 0 -4 9 3 8 -4 24 -17 37 -21 21
-26 22 -163 16 -78 -4 -154 -10 -169 -13 l-28 -6 3 -97 3 -96 145 -3 145 -3
76 36 c42 20 94 38 115 41 38 5 37 5 -16 -19 -30 -13 -71 -33 -90 -45 l-35
-22 158 0 157 0 0 34 c0 54 8 66 45 66 29 0 33 4 39 33 3 17 20 51 36 74 l30
42 -55 11 c-30 6 -141 13 -246 14 l-191 3 -31 31 c-17 17 -29 34 -25 37 3 3
42 11 87 17 76 11 85 11 119 -7 20 -11 41 -30 47 -42 7 -16 18 -23 37 -23 16
0 28 4 28 9 0 19 -103 99 -134 105 -18 4 -72 -1 -122 -10 -90 -16 -205 -21
-224 -9 -18 11 -10 24 17 27 24 3 29 9 35 43 5 33 3 43 -14 56 -14 11 -17 18
-9 23 23 15 -1 26 -55 26 -52 0 -54 -1 -48 -24z"/>
    <path d="M2835 1171 c-15 -46 -19 -50 -56 -56 -22 -4 -42 -5 -45 -2 -3 2 2 23
9 46 16 45 15 46 -43 35 -24 -5 -36 -15 -46 -40 -22 -53 -19 -60 27 -56 46 5
44 10 23 -67 -7 -22 -6 -23 35 -16 l42 7 -3 -49 -3 -48 39 0 c38 0 39 1 53 48
l14 48 48 -7 c46 -6 49 -5 55 19 3 15 10 37 16 51 9 25 10 25 51 11 23 -9 45
-13 47 -10 7 6 32 76 32 88 0 8 -62 37 -79 37 -6 0 -17 -21 -24 -47 l-14 -48
-49 0 c-48 0 -48 0 -65 -45 -16 -44 -18 -45 -63 -48 -25 -2 -46 -1 -46 1 0 2
7 24 16 50 l16 47 47 0 47 0 16 50 16 50 -48 0 -48 0 -17 -49z"/>
    <path d="M2501 1161 c-17 -5 -29 -19 -39 -49 -13 -41 -15 -42 -58 -42 -39 0
-46 -3 -55 -27 -15 -40 -5 -55 38 -51 32 3 38 7 48 38 10 31 17 36 58 44 46 9
51 14 67 69 8 24 6 27 -13 26 -12 -1 -33 -4 -46 -8z"/>
    <path d="M2283 1121 c-6 -22 -8 -43 -5 -46 3 -3 22 -5 43 -5 35 0 39 3 48 37
6 20 9 38 8 39 -1 1 -21 5 -43 9 l-41 6 -10 -40z"/>
    <path d="M2543 1078 c-12 -16 -33 -75 -28 -80 2 -2 22 -2 45 0 42 4 45 7 64
70 7 20 4 22 -32 22 -22 0 -44 -6 -49 -12z"/>
    <path d="M2618 1003 c-9 -2 -21 -17 -27 -33 -8 -25 -7 -30 9 -35 44 -14 90 20
90 66 0 9 -41 11 -72 2z"/>
    <path d="M2957 953 l-17 -48 -48 0 c-40 0 -47 -3 -47 -20 0 -13 12 -26 35 -37
l35 -18 11 33 c12 33 33 40 80 24 18 -6 24 -1 39 39 20 52 15 62 -36 70 -34 6
-35 5 -52 -43z"/>
    <path d="M2427 983 c-14 -14 -6 -22 29 -29 34 -6 53 4 54 29 0 9 -74 10 -83 0z"/>
    <path d="M2620 898 c-33 -17 -51 -35 -67 -68 -30 -57 -29 -106 2 -164 22 -41
22 -46 7 -46 -40 0 -679 -31 -702 -34 -14 -1 176 -4 421 -5 l446 -1 44 23 c57
31 89 84 89 153 0 125 -127 200 -240 142z m137 -64 c12 -7 27 -30 32 -50 26
-96 -77 -173 -153 -113 -49 38 -51 124 -4 158 47 34 79 35 125 5z"/>
    <path d="M2874 814 c3 -8 6 -41 6 -71 l0 -55 30 4 c29 4 30 4 30 -39 l0 -44
138 3 137 3 3 53 3 52 -73 1 c-76 1 -159 15 -108 18 32 2 22 8 -90 56 -62 26
-81 31 -76 19z"/>
  </g>

  <!-- Tagline text: RED -->
  <g fill="#e10600">
    <path d="M160 463 c0 -5 9 -22 19 -39 11 -18 21 -44 23 -58 4 -36 22 -34 29 2
3 17 16 46 28 66 18 29 20 36 7 36 -8 0 -17 -9 -21 -19 -3 -11 -12 -24 -20
-31 -10 -9 -17 -5 -31 19 -17 29 -34 41 -34 24z"/>
    <path d="M320 450 c-27 -27 -25 -66 5 -95 30 -30 54 -31 89 -4 50 40 21 119
-44 119 -17 0 -39 -9 -50 -20z m94 -32 c19 -53 -47 -91 -78 -46 -20 28 -20 43
0 63 25 24 67 15 78 -17z"/>
    <path d="M480 420 c0 -37 5 -55 20 -70 46 -46 100 -9 100 70 0 37 -4 50 -14
50 -11 0 -15 -13 -14 -50 2 -57 -10 -75 -41 -65 -18 5 -21 14 -21 61 0 41 -4
54 -15 54 -11 0 -15 -12 -15 -50z"/>
    <path d="M650 406 c0 -36 5 -68 10 -71 6 -3 10 3 10 14 0 28 41 28 58 1 7 -12
17 -18 22 -15 6 4 5 14 -2 25 -10 15 -10 22 0 32 33 33 0 78 -59 78 l-39 0 0
-64z m84 28 c9 -22 -11 -44 -40 -44 -20 0 -24 5 -24 30 0 26 3 30 29 30 17 0
31 -6 35 -16z"/>
    <path d="M877 463 c-11 -10 -8 -106 3 -123 8 -13 11 -11 16 8 8 27 35 29 59 2
22 -24 31 -19 16 9 -7 13 -8 22 -1 26 14 9 13 58 -2 73 -13 13 -80 17 -91 5z
m78 -43 c0 -20 -6 -26 -27 -28 -25 -3 -28 0 -28 28 0 28 3 31 28 28 21 -2 27
-8 27 -28z"/>
    <path d="M1045 405 c-16 -36 -26 -68 -22 -71 3 -3 10 4 17 15 14 27 61 28 85
1 10 -11 20 -18 23 -15 8 8 -51 135 -63 135 -7 0 -25 -29 -40 -65z m55 -7 c0
-11 -8 -18 -20 -18 -23 0 -23 0 -9 37 8 22 12 24 19 13 6 -8 10 -23 10 -32z"/>
    <path d="M1200 448 c-27 -29 -25 -64 5 -93 27 -28 53 -31 81 -10 17 13 16 14
-18 8 -31 -5 -38 -2 -53 20 -30 47 3 87 61 73 26 -7 33 8 8 18 -31 12 -64 6
-84 -16z"/>
    <path d="M1345 448 c1 -13 3 -45 4 -71 2 -73 21 -47 21 29 0 47 -4 64 -14 64
-8 0 -12 -9 -11 -22z"/>
    <path d="M1422 403 c3 -76 21 -92 26 -25 l3 44 36 -46 c19 -25 39 -43 44 -40
12 7 11 134 -1 134 -5 0 -10 -21 -10 -47 l-1 -48 -40 48 c-23 26 -45 47 -50
47 -6 0 -9 -30 -7 -67z"/>
    <path d="M1604 444 c-20 -19 -24 -31 -20 -52 13 -51 62 -75 107 -52 23 13 26
60 4 60 -8 0 -15 -9 -15 -20 0 -26 -22 -35 -49 -20 -14 7 -21 21 -21 39 0 37
22 55 60 47 31 -6 42 7 14 18 -30 12 -55 6 -80 -20z"/>
    <path d="M1843 455 c-43 -30 -26 -108 26 -120 33 -7 75 10 65 26 -4 6 -11 6
-20 -2 -22 -18 -63 -2 -70 28 -10 39 7 58 50 57 23 -1 35 3 33 10 -6 18 -60
18 -84 1z"/>
    <path d="M1990 450 c-20 -20 -26 -65 -12 -87 13 -21 60 -33 86 -23 72 27 52
130 -24 130 -17 0 -39 -9 -50 -20z m84 -16 c30 -29 9 -84 -31 -84 -21 0 -53
29 -53 47 0 47 52 70 84 37z"/>
    <path d="M2152 405 c3 -71 20 -88 28 -30 l5 37 18 -31 c10 -17 22 -31 26 -31
4 0 16 17 27 38 l19 37 3 -47 c5 -74 22 -57 22 22 0 77 -11 88 -38 39 -36 -65
-36 -65 -63 -15 -35 67 -51 61 -47 -19z"/>
    <path d="M2352 403 c2 -41 7 -66 13 -63 6 3 9 10 9 17 -1 6 12 14 29 17 40 8
57 23 57 52 0 28 -27 44 -75 44 l-36 0 3 -67z m86 23 c4 -20 -13 -36 -39 -36
-16 0 -32 43 -20 55 12 13 56 -1 59 -19z"/>
    <path d="M2515 414 c-29 -65 -33 -103 -8 -66 20 29 66 30 85 0 8 -12 17 -17
20 -12 8 12 -48 134 -62 134 -5 0 -21 -25 -35 -56z m54 -21 c1 -7 -8 -13 -19
-13 -23 0 -25 12 -8 43 11 21 11 21 19 2 4 -11 8 -26 8 -32z"/>
    <path d="M2660 399 c0 -44 4 -68 10 -64 6 3 10 25 10 48 l0 42 45 -50 44 -50
1 73 c0 79 -17 100 -22 26 l-3 -47 -33 47 c-18 25 -37 46 -43 46 -5 0 -9 -32
-9 -71z"/>
    <path d="M2830 400 c0 -40 4 -70 10 -70 6 0 10 30 10 70 0 40 -4 70 -10 70 -6
0 -10 -30 -10 -70z"/>
    <path d="M2921 451 c-25 -25 -27 -73 -5 -95 61 -61 158 14 107 82 -26 35 -74
41 -102 13z m83 -17 c22 -21 20 -47 -4 -69 -42 -38 -98 12 -70 64 13 25 52 28
74 5z"/>
    <path d="M3082 403 c3 -71 24 -90 22 -20 -1 20 2 37 5 37 3 -1 21 -21 39 -46
18 -24 37 -42 43 -39 5 4 9 35 9 71 0 52 -3 64 -16 64 -13 0 -15 -9 -12 -44 3
-43 2 -44 -15 -28 -10 9 -26 29 -35 44 -29 50 -43 36 -40 -39z"/>
  </g>

</g>
</svg>
